<svg width="150" height="58" viewBox="0 0 150 58" fill="none" xmlns="http://www.w3.org/2000/svg">
<path d="M25.5566 33.9043C25.5566 38.1348 24.3496 41.375 21.9355 43.625C19.5332 45.875 16.0586 47 11.5117 47H4.23438V21.3008H12.3027C16.498 21.3008 19.7559 22.4082 22.0762 24.623C24.3965 26.8379 25.5566 29.9316 25.5566 33.9043ZM19.8965 34.0449C19.8965 28.5254 17.459 25.7656 12.584 25.7656H9.68359V42.5H12.0215C17.2715 42.5 19.8965 39.6816 19.8965 34.0449ZM54.8348 47H35.7098V43.4668L48.032 25.8008H36.0438V21.3008H54.5008V24.8164L42.1961 42.5H54.8348V47ZM81.8629 47L79.9996 40.8828H70.6305L68.7672 47H62.8961L71.9664 21.1953H78.6285L87.734 47H81.8629ZM78.6988 36.3125C76.9762 30.7695 76.0035 27.6348 75.7809 26.9082C75.5699 26.1816 75.4176 25.6074 75.3238 25.1855C74.9371 26.6855 73.8297 30.3945 72.0016 36.3125H78.6988ZM103.635 32.709H105.393C107.116 32.709 108.387 32.4219 109.207 31.8477C110.028 31.2734 110.438 30.3711 110.438 29.1406C110.438 27.9219 110.016 27.0547 109.172 26.5391C108.34 26.0234 107.045 25.7656 105.287 25.7656H103.635V32.709ZM103.635 37.1387V47H98.1859V21.3008H105.674C109.166 21.3008 111.75 21.9395 113.426 23.2168C115.102 24.4824 115.94 26.4102 115.94 29C115.94 30.5117 115.524 31.8594 114.692 33.043C113.86 34.2148 112.682 35.1348 111.159 35.8027C115.026 41.5801 117.545 45.3125 118.717 47H112.67L106.536 37.1387H103.635ZM134.601 32.709H136.359C138.081 32.709 139.353 32.4219 140.173 31.8477C140.993 31.2734 141.404 30.3711 141.404 29.1406C141.404 27.9219 140.982 27.0547 140.138 26.5391C139.306 26.0234 138.011 25.7656 136.253 25.7656H134.601V32.709ZM134.601 37.1387V47H129.152V21.3008H136.64C140.132 21.3008 142.716 21.9395 144.392 23.2168C146.068 24.4824 146.905 26.4102 146.905 29C146.905 30.5117 146.489 31.8594 145.657 33.043C144.825 34.2148 143.648 35.1348 142.124 35.8027C145.991 41.5801 148.511 45.3125 149.683 47H143.636L137.501 37.1387H134.601Z" fill="#8E17C6"/>
<path d="M7.9946 7.45945C7.9946 8.39382 7.67473 9.11353 7.03498 9.61859C6.39945 10.1194 5.48823 10.3699 4.30134 10.3699H3.21545V14H2.1422V4.77H4.53493C6.84137 4.77 7.9946 5.66648 7.9946 7.45945ZM3.21545 9.44813H4.18138C5.13258 9.44813 5.82073 9.29451 6.24582 8.98726C6.67092 8.68002 6.88346 8.18758 6.88346 7.50996C6.88346 6.89968 6.68354 6.44512 6.2837 6.14629C5.88386 5.84746 5.26095 5.69805 4.41497 5.69805H3.21545V9.44813ZM17.9443 9.37237C17.9443 10.8497 17.5697 12.0113 16.8205 12.8573C16.0756 13.7033 15.0381 14.1263 13.7081 14.1263C12.3487 14.1263 11.2985 13.7117 10.5578 12.8826C9.82124 12.0492 9.45296 10.8749 9.45296 9.35975C9.45296 7.85719 9.82334 6.69344 10.5641 5.86851C11.3049 5.03937 12.3571 4.62479 13.7207 4.62479C15.0465 4.62479 16.0819 5.04568 16.8269 5.88745C17.5718 6.72922 17.9443 7.89086 17.9443 9.37237ZM10.5894 9.37237C10.5894 10.6224 10.8545 11.5715 11.3848 12.2197C11.9193 12.8636 12.6938 13.1856 13.7081 13.1856C14.7309 13.1856 15.5032 12.8636 16.0251 12.2197C16.547 11.5757 16.8079 10.6266 16.8079 9.37237C16.8079 8.13076 16.547 7.19009 16.0251 6.55034C15.5074 5.90639 14.7393 5.58441 13.7207 5.58441C12.698 5.58441 11.9193 5.90849 11.3848 6.55665C10.8545 7.20061 10.5894 8.13918 10.5894 9.37237ZM21.082 10.1615V14H20.0088V4.77H22.5404C23.6726 4.77 24.508 4.98675 25.0467 5.42027C25.5897 5.85378 25.8612 6.50615 25.8612 7.37738C25.8612 8.59795 25.2425 9.42288 24.0051 9.85218L26.5114 14H25.2425L23.0076 10.1615H21.082ZM21.082 9.23979H22.553C23.3106 9.23979 23.8662 9.09038 24.2197 8.79155C24.5732 8.48852 24.75 8.03606 24.75 7.4342C24.75 6.82392 24.569 6.38409 24.2071 6.11473C23.8493 5.84536 23.2727 5.71068 22.4772 5.71068H21.082V9.23979ZM30.8423 14H29.7691V5.7233H26.846V4.77H33.7654V5.7233H30.8423V14ZM43.1721 9.37237C43.1721 10.8497 42.7976 12.0113 42.0484 12.8573C41.3034 13.7033 40.2659 14.1263 38.9359 14.1263C37.5765 14.1263 36.5264 13.7117 35.7856 12.8826C35.0491 12.0492 34.6808 10.8749 34.6808 9.35975C34.6808 7.85719 35.0512 6.69344 35.7919 5.86851C36.5327 5.03937 37.5849 4.62479 38.9486 4.62479C40.2743 4.62479 41.3097 5.04568 42.0547 5.88745C42.7997 6.72922 43.1721 7.89086 43.1721 9.37237ZM35.8172 9.37237C35.8172 10.6224 36.0823 11.5715 36.6127 12.2197C37.1472 12.8636 37.9216 13.1856 38.9359 13.1856C39.9587 13.1856 40.731 12.8636 41.2529 12.2197C41.7748 11.5757 42.0358 10.6266 42.0358 9.37237C42.0358 8.13076 41.7748 7.19009 41.2529 6.55034C40.7352 5.90639 39.9671 5.58441 38.9486 5.58441C37.9258 5.58441 37.1472 5.90849 36.6127 6.55665C36.0823 7.20061 35.8172 8.13918 35.8172 9.37237ZM46.3098 14H45.2366V4.77H50.3819V5.7233H46.3098V9.1009H50.1357V10.0542H46.3098V14ZM59.9276 9.37237C59.9276 10.8497 59.553 12.0113 58.8038 12.8573C58.0588 13.7033 57.0214 14.1263 55.6914 14.1263C54.3319 14.1263 53.2818 13.7117 52.541 12.8826C51.8045 12.0492 51.4362 10.8749 51.4362 9.35975C51.4362 7.85719 51.8066 6.69344 52.5473 5.86851C53.2881 5.03937 54.3403 4.62479 55.704 4.62479C57.0298 4.62479 58.0651 5.04568 58.8101 5.88745C59.5551 6.72922 59.9276 7.89086 59.9276 9.37237ZM52.5726 9.37237C52.5726 10.6224 52.8378 11.5715 53.3681 12.2197C53.9026 12.8636 54.677 13.1856 55.6914 13.1856C56.7141 13.1856 57.4864 12.8636 58.0083 12.2197C58.5302 11.5757 58.7912 10.6266 58.7912 9.37237C58.7912 8.13076 58.5302 7.19009 58.0083 6.55034C57.4906 5.90639 56.7225 5.58441 55.704 5.58441C54.6812 5.58441 53.9026 5.90849 53.3681 6.55665C52.8378 7.20061 52.5726 8.13918 52.5726 9.37237ZM61.992 14V4.77H63.0653V13.0278H67.1373V14H61.992ZM68.7093 14V4.77H69.7826V14H68.7093ZM80.332 9.37237C80.332 10.8497 79.9575 12.0113 79.2083 12.8573C78.4633 13.7033 77.4258 14.1263 76.0958 14.1263C74.7364 14.1263 73.6863 13.7117 72.9455 12.8826C72.209 12.0492 71.8407 10.8749 71.8407 9.35975C71.8407 7.85719 72.2111 6.69344 72.9518 5.86851C73.6926 5.03937 74.7448 4.62479 76.1085 4.62479C77.4343 4.62479 78.4696 5.04568 79.2146 5.88745C79.9596 6.72922 80.332 7.89086 80.332 9.37237ZM72.9771 9.37237C72.9771 10.6224 73.2422 11.5715 73.7726 12.2197C74.3071 12.8636 75.0815 13.1856 76.0958 13.1856C77.1186 13.1856 77.8909 12.8636 78.4128 12.2197C78.9347 11.5757 79.1957 10.6266 79.1957 9.37237C79.1957 8.13076 78.9347 7.19009 78.4128 6.55034C77.8951 5.90639 77.127 5.58441 76.1085 5.58441C75.0857 5.58441 74.3071 5.90849 73.7726 6.55665C73.2422 7.20061 72.9771 8.13918 72.9771 9.37237Z" fill="#373737"/>
</svg>
